<?xml version="1.0" encoding="UTF-8" standalone="no"?>
<!-- Generator: Adobe Illustrator 18.1.1, SVG Export Plug-In . SVG Version: 6.00 Build 0)  -->

<svg
   xmlns:dc="http://purl.org/dc/elements/1.1/"
   xmlns:cc="http://creativecommons.org/ns#"
   xmlns:rdf="http://www.w3.org/1999/02/22-rdf-syntax-ns#"
   xmlns:svg="http://www.w3.org/2000/svg"
   xmlns="http://www.w3.org/2000/svg"
   xmlns:sodipodi="http://sodipodi.sourceforge.net/DTD/sodipodi-0.dtd"
   xmlns:inkscape="http://www.inkscape.org/namespaces/inkscape"
   version="1.1"
   id="Capa_1"
   x="0px"
   y="0px"
   viewBox="0 0 14.155 14.155"
   style="enable-background:new 0 0 14.155 14.155;"
   xml:space="preserve"
   width="512px"
   height="512px"
   inkscape:version="0.92.5 (2060ec1f9f, 2020-04-08)"
   sodipodi:docname="reset_disabled.svg"><metadata
     id="metadata41"><rdf:RDF><cc:Work
         rdf:about=""><dc:format>image/svg+xml</dc:format><dc:type
           rdf:resource="http://purl.org/dc/dcmitype/StillImage" /></cc:Work></rdf:RDF></metadata><defs
     id="defs39" /><sodipodi:namedview
     pagecolor="#ffffff"
     bordercolor="#666666"
     borderopacity="1"
     objecttolerance="10"
     gridtolerance="10"
     guidetolerance="10"
     inkscape:pageopacity="0"
     inkscape:pageshadow="2"
     inkscape:window-width="1920"
     inkscape:window-height="1019"
     id="namedview37"
     showgrid="false"
     inkscape:zoom="2.1165125"
     inkscape:cx="358.62914"
     inkscape:cy="191.15241"
     inkscape:window-x="1920"
     inkscape:window-y="33"
     inkscape:window-maximized="1"
     inkscape:current-layer="g3" /><g
     id="g3"><path
       d="M12.083,1.887c-0.795-0.794-1.73-1.359-2.727-1.697v2.135c0.48,0.239,0.935,0.55,1.334,0.95   c1.993,1.994,1.993,5.236,0,7.229c-1.993,1.99-5.233,1.99-7.229,0c-1.991-1.995-1.991-5.235,0-7.229   C3.466,3.269,3.482,3.259,3.489,3.25h0.002l1.181,1.179L4.665,0.685L0.923,0.68l1.176,1.176C2.092,1.868,2.081,1.88,2.072,1.887   c-2.763,2.762-2.763,7.243,0,10.005c2.767,2.765,7.245,2.765,10.011,0C14.844,9.13,14.847,4.649,12.083,1.887z"
       fill="#388700"
       id="path5"
       style="fill:#818181;fill-opacity:1" /></g><g
     id="g7" /><g
     id="g9" /><g
     id="g11" /><g
     id="g13" /><g
     id="g15" /><g
     id="g17" /><g
     id="g19" /><g
     id="g21" /><g
     id="g23" /><g
     id="g25" /><g
     id="g27" /><g
     id="g29" /><g
     id="g31" /><g
     id="g33" /><g
     id="g35" /></svg>