<?xml version="1.0" encoding="UTF-8" standalone="no"?>
<!-- Generator: Adobe Illustrator 19.0.0, SVG Export Plug-In . SVG Version: 6.00 Build 0)  -->

<svg
   xmlns:dc="http://purl.org/dc/elements/1.1/"
   xmlns:cc="http://creativecommons.org/ns#"
   xmlns:rdf="http://www.w3.org/1999/02/22-rdf-syntax-ns#"
   xmlns:svg="http://www.w3.org/2000/svg"
   xmlns="http://www.w3.org/2000/svg"
   xmlns:sodipodi="http://sodipodi.sourceforge.net/DTD/sodipodi-0.dtd"
   xmlns:inkscape="http://www.inkscape.org/namespaces/inkscape"
   version="1.1"
   id="Layer_1"
   x="0px"
   y="0px"
   viewBox="0 0 512 512"
   style="enable-background:new 0 0 512 512;"
   xml:space="preserve"
   inkscape:version="0.91 r13725"
   sodipodi:docname="logo.svg"><metadata
     id="metadata57"><rdf:RDF><cc:Work
         rdf:about=""><dc:format>image/svg+xml</dc:format><dc:type
           rdf:resource="http://purl.org/dc/dcmitype/StillImage" /><dc:title></dc:title></cc:Work></rdf:RDF></metadata><defs
     id="defs55" /><sodipodi:namedview
     pagecolor="#ffffff"
     bordercolor="#666666"
     borderopacity="1"
     objecttolerance="10"
     gridtolerance="10"
     guidetolerance="10"
     inkscape:pageopacity="0"
     inkscape:pageshadow="2"
     inkscape:window-width="1862"
     inkscape:window-height="1051"
     id="namedview53"
     showgrid="false"
     inkscape:zoom="0.4609375"
     inkscape:cx="256"
     inkscape:cy="256"
     inkscape:window-x="58"
     inkscape:window-y="0"
     inkscape:window-maximized="1"
     inkscape:current-layer="g4185" /><g
     id="g4185"
     transform="matrix(0.81841302,-0.57463042,0.57463042,0.81841302,-100.61912,193.59165)"><path
       id="path7"
       d="m 293.6,255.996 c 15.51,-7.126 30.298,-14.786 42.791,-23.59 26.227,-18.479 38.975,-39.631 38.975,-64.66 0,-25.028 -12.748,-46.178 -38.974,-64.657 C 323.899,94.286 309.11,86.627 293.6,79.501 L 281.685,65.29 256,63.213 243,77 256,95.789 c 46.734,19.81 89.365,39.141 89.365,71.957 0,32.818 -42.631,52.15 -89.365,71.962 l 11.072,12.71 26.528,3.578 z"
       style="fill:#d02020;fill-opacity:1"
       inkscape:connector-curvature="0" /><path
       id="path9"
       d="m 256,63.213 c 1.948,0.826 3.896,1.65 5.842,2.473 10.6,4.481 21.34,9.029 31.758,13.815 C 324.526,65.28 352.462,48.909 366.311,24.929 357.183,20.564 347.759,16.717 338.072,13.44 323.739,33.749 289.946,48.82 256,63.213 Z"
       style="fill:#cccccc;fill-opacity:1"
       inkscape:connector-curvature="0" /><path
       id="path11"
       d="m 173.928,13.439 c -9.687,3.277 -19.11,7.124 -28.239,11.489 13.85,23.979 41.786,40.351 72.711,54.572 L 232.525,93.297 256,95.789 256,63.213 C 222.054,48.82 188.261,33.749 173.928,13.439 Z"
       style="fill:#d02020;fill-opacity:1"
       inkscape:connector-curvature="0" /><path
       id="path13"
       d="m 293.598,432.496 -8.932,-16.289 -28.666,0 0,0 -13,14.293 13,18.283 0,0 c 33.947,14.395 67.74,29.466 82.073,49.777 9.687,-3.276 19.11,-7.124 28.238,-11.489 -13.85,-23.981 -41.787,-40.354 -72.713,-54.575 z"
       style="fill:#d02020;fill-opacity:1"
       inkscape:connector-curvature="0" /><path
       id="path15"
       d="m 166.635,344.245 c 0,-32.817 42.631,-52.15 89.365,-71.961 L 245.309,259.412 218.4,255.995 c -15.51,7.126 -30.298,14.786 -42.792,23.59 -26.226,18.479 -38.974,39.63 -38.974,64.659 0,25.029 12.748,46.181 38.974,64.66 12.494,8.803 27.283,16.464 42.794,23.59 L 229,447.5 l 27,1.283 0,-32.577 c -46.734,-19.81 -89.365,-39.143 -89.365,-71.961 z"
       style="fill:#d02020;fill-opacity:1"
       inkscape:connector-curvature="0" /><path
       id="path17"
       d="m 256,448.783 c -1.948,-0.826 -3.896,-1.65 -5.841,-2.473 -10.6,-4.481 -21.34,-9.029 -31.757,-13.815 -30.926,14.222 -58.863,30.594 -72.713,54.576 9.128,4.365 18.551,8.212 28.238,11.489 14.333,-20.311 48.127,-35.382 82.073,-49.777 z"
       style="fill:#cccccc;fill-opacity:1"
       inkscape:connector-curvature="0" /><path
       id="path19"
       d="m 336.392,279.586 c -12.493,-8.804 -27.281,-16.464 -42.792,-23.59 -10.417,-4.786 -21.157,-9.333 -31.758,-13.815 -1.952,-0.826 -3.9,-1.649 -5.841,-2.473 L 245.5,252.5 256,272.284 c 46.734,19.81 89.365,39.144 89.365,71.961 0,32.818 -42.631,52.151 -89.365,71.961 1.941,0.823 3.889,1.646 5.841,2.472 10.643,4.5 21.366,9.039 31.757,13.817 15.51,-7.126 30.3,-14.787 42.793,-23.59 26.226,-18.48 38.974,-39.631 38.974,-64.66 0,-25.029 -12.748,-46.18 -38.973,-64.659 z"
       style="fill:#cccccc;fill-opacity:1"
       inkscape:connector-curvature="0" /><path
       id="path21"
       d="m 256,239.708 c -46.734,-19.812 -89.365,-39.144 -89.365,-71.962 0,-32.816 42.631,-52.147 89.365,-71.957 -1.941,-0.823 -3.888,-1.646 -5.841,-2.472 -10.644,-4.5 -21.367,-9.039 -31.759,-13.817 -15.51,7.126 -30.299,14.786 -42.792,23.588 -26.226,18.479 -38.974,39.629 -38.974,64.657 0,25.029 12.748,46.181 38.975,64.66 12.493,8.804 27.281,16.464 42.791,23.59 10.418,4.787 21.158,9.334 31.759,13.816 1.953,0.825 3.9,1.649 5.841,2.472 l 0,0 0,-32.575 0,0 z"
       style="fill:#cccccc;fill-opacity:1"
       inkscape:connector-curvature="0" /><g
       id="g23" /><g
       id="g25" /><g
       id="g27" /><g
       id="g29" /><g
       id="g31" /><g
       id="g33" /><g
       id="g35" /><g
       id="g37" /><g
       id="g39" /><g
       id="g41" /><g
       id="g43" /><g
       id="g45" /><g
       id="g47" /><g
       id="g49" /><g
       id="g51" /></g></svg>