<?xml version="1.0" encoding="UTF-8" standalone="no"?>
<svg
   xmlns:dc="http://purl.org/dc/elements/1.1/"
   xmlns:cc="http://creativecommons.org/ns#"
   xmlns:rdf="http://www.w3.org/1999/02/22-rdf-syntax-ns#"
   xmlns:svg="http://www.w3.org/2000/svg"
   xmlns="http://www.w3.org/2000/svg"
   xmlns:sodipodi="http://sodipodi.sourceforge.net/DTD/sodipodi-0.dtd"
   xmlns:inkscape="http://www.inkscape.org/namespaces/inkscape"
   width="32"
   height="32"
   id="svg2"
   version="1.1"
   inkscape:version="0.91 r13725"
   sodipodi:docname="contact.svg">
  <metadata
     id="metadata22">
    <rdf:RDF>
      <cc:Work
         rdf:about="">
        <dc:format>image/svg+xml</dc:format>
        <dc:type
           rdf:resource="http://purl.org/dc/dcmitype/StillImage" />
      </cc:Work>
    </rdf:RDF>
  </metadata>
  <defs
     id="defs20" />
  <sodipodi:namedview
     pagecolor="#ffffff"
     bordercolor="#666666"
     borderopacity="1"
     objecttolerance="10"
     gridtolerance="10"
     guidetolerance="10"
     inkscape:pageopacity="0"
     inkscape:pageshadow="2"
     inkscape:window-width="1862"
     inkscape:window-height="1051"
     id="namedview18"
     showgrid="false"
     inkscape:zoom="7.375"
     inkscape:cx="-37.559322"
     inkscape:cy="16"
     inkscape:window-x="58"
     inkscape:window-y="0"
     inkscape:window-maximized="1"
     inkscape:current-layer="svg2" />
  <title
     id="title4" />
  <desc
     id="desc6" />
  <g
     id="g8">
    <title
       id="title10">background</title>
    <rect
       fill="none"
       id="canvas_background"
       height="402"
       width="582"
       y="-1"
       x="-1" />
  </g>
  <g
     id="g13"
     style="fill:#f4f4f4;fill-opacity:1">
    <title
       id="title15">Layer 1</title>
    <path
       id="mail-envelope-open"
       d="m20.63815,20l-2.21758,1.98279l0.09938,-0.00052l0,0l-0.01995,0.01773l-3.37851,0l1.6967,-0.00885l0,0l-2.26719,-0.01084l-2.24435,-1.98031l8.3315,0l0,0zm1.11842,-1l3.24343,-2.90002l0,-8.09135c0,-0.55705 -0.45471,-1.00863 -0.99996,-1.00863l-15.00008,0c-0.55226,0 -0.99996,0.44374 -0.99996,1.00208l0,8.19793l3.17332,2.79999l10.58325,0l0,0zm-8.66566,-13l3.40909,-3l3.40909,3l4.09349,0c1.10649,0 1.99742,0.89526 1.99742,1.99961l0,3.36039l3,2.64l0,14.00594c0,1.09955 -0.89704,1.99406 -2.00359,1.99406l-20.99282,0c-1.11383,0 -2.00359,-0.89277 -2.00359,-1.99406l0,-14.00594l3,-2.64l0,-3.36039c0,-1.11218 0.89428,-1.99961 1.99742,-1.99961l4.09349,0l0,0l0,0zm5.33692,0l-1.92783,-1.7l-1.92783,1.7l3.85566,0l0,0l0,0zm7.57217,6.67727l1.5,1.32273l-1.5,1.33333l0,-2.65606l0,0l0,0zm-19,2.65606l-1.5,-1.33333l1.5,-1.32273l0,2.65606l0,0l0,0zm6.5,7.66667l-7,6l20,0l-7,-6l-6,0l0,0zm14.18514,5.72517l-7.68514,-6.70808l8,-7.01709l0,6.50002l0,6.50002c0,0.28311 -0.12101,0.54182 -0.31486,0.72513l0,0l0,0zm-22.37028,0l7.68514,-6.70808l-8,-7.01709l0,6.50002l0,6.50002c0,0.28311 0.12101,0.54182 0.31486,0.72513l0,0l0,0zm4.68514,-18.72517l0,1l13,0l0,-1l-13,0l0,0zm0,3l0,1l13,0l0,-1l-13,0l0,0zm0,3l0,1l13,0l0,-1l-13,0l0,0z"
       style="fill:#f4f4f4;fill-opacity:1" />
  </g>
</svg>
